<?xml version="1.0" encoding="utf-8"?>
<!-- Generator: Adobe Illustrator 16.0.0, SVG Export Plug-In . SVG Version: 6.00 Build 0)  -->
<!DOCTYPE svg PUBLIC "-//W3C//DTD SVG 1.1//EN" "http://www.w3.org/Graphics/SVG/1.1/DTD/svg11.dtd">
<svg version="1.1" id="Layer_1" xmlns="http://www.w3.org/2000/svg" xmlns:xlink="http://www.w3.org/1999/xlink" x="0px" y="0px"
	 width="1000.131px" height="285.262px" viewBox="0 0 1000.131 285.262" enable-background="new 0 0 1000.131 285.262"
	 xml:space="preserve">
<g>
	<path d="M39.015,121.131l-1.333-1.053l1.25-1.198c6.846-6.484,6.846-9.831,6.785-17.865V83.811c0-12.702-4.482-16.151-20.87-16.151
		H0c1.942,4.729,2.221,7.125,2.221,12.309v87.962c0,5.185-0.279,7.58-2.199,12.33h24.825c16.584,0,20.87-3.346,20.87-16.172v-26.787
		C45.737,129.826,45.757,126.418,39.015,121.131 M31.042,160.992c0,4.027-0.526,7.952-6.763,7.952h-7.363V126.48h7.363
		c6.237,0,6.763,3.924,6.763,7.972V160.992z M31.042,107.066c0,4.048-0.526,7.973-6.763,7.973h-7.363V79.412h7.363
		c6.237,0,6.763,3.924,6.763,7.973V107.066z"/>
	<path d="M122.103,169.087V79.969c0-5.205,0.279-7.622,2.302-12.309h-19.218c1.962,4.709,2.241,7.125,2.241,12.309v87.982
		c0,5.164-0.279,7.539-2.22,12.31h35.946v-12.764c-4.245,1.384-8.095,1.59-17.596,1.59"/>
	<path d="M240.166,79.99c0-5.184,0.258-7.6,2.199-12.33h-19.114c1.942,4.729,2.22,7.146,2.22,12.33v81.456
		c0,7.291-3.851,8.86-7.063,8.86c-4.317,0-7.084-3.49-7.084-8.86V79.99c0-5.205,0.31-7.62,2.323-12.33H194.44
		c1.931,4.729,2.199,7.146,2.199,12.33v83.067c0,7.787,2.096,11.029,6.176,14.768c3.283,2.581,9.2,4.172,15.676,4.172
		c6.516,0,12.329-1.57,15.541-4.214c4.616-4.068,6.134-7.662,6.134-14.726"/>
	<path d="M376.457,68.548h-24.113l-14.271,74.516L323.264,67.64h-23.028c1.756,4.418,2.015,6.793,2.015,11.937v88.354
		c0,5.122-0.259,7.477-2.015,11.896h16.244c-1.734-4.316-2.137-6.815-2.137-11.896V82.613l18.588,97.215h10.347l18.774-98.309
		v86.412c0,5.06-0.444,7.56-2.158,11.896h16.223c-1.734-4.42-2.003-6.774-2.003-11.896V80.919
		C374.112,74.62,374.681,72.885,376.457,68.548"/>
	<path d="M694.805,70.138c-3.212-2.664-8.984-4.254-15.397-4.254c-6.423,0-12.195,1.591-15.417,4.254
		c-4.398,3.862-5.999,7.58-5.999,14.292v78.647c0,7.621,2.044,10.885,6.071,14.499c3.17,2.54,8.922,4.109,15.345,4.109
		c6.413,0,12.186-1.569,15.419-4.172c4.471-3.903,5.845-7.311,5.845-14.437V84.43C700.671,77.326,699.225,73.855,694.805,70.138
		 M686.946,161.446c0,8.448-5.381,9.356-7.703,9.356c-4.565,0-7.385-3.573-7.385-9.356V86.207c0-4.317,1.952-9.356,7.385-9.356
		c4.884,0,7.703,3.428,7.703,9.356V161.446z"/>
	<path d="M790.914,79.577v81.806c0,7.725-4.079,9.315-7.507,9.315c-5.556,0-7.549-5.019-7.549-9.315V79.577
		c0-5.184,0.279-7.559,2.096-11.937h-17.978c1.755,4.418,2.013,6.773,2.013,11.937v83.417c0,7.621,2.045,10.864,6.041,14.499
		c3.242,2.54,9.016,4.068,15.47,4.068c6.423,0,12.155-1.548,15.304-4.131c4.596-4.006,5.989-7.394,5.989-14.437V79.577
		c0-5.164,0.248-7.519,2.004-11.937h-17.865C790.667,72.059,790.914,74.414,790.914,79.577"/>
	<path d="M895.079,121.359l-5.505-6.816c-0.908-1.156-1.704-2.147-2.426-3.056c-3.997-4.895-6.011-7.353-6.011-12.846V83.583
		c0-4.026,2.139-6.629,5.483-6.629c3.295,0,5.876,2.913,5.876,6.629l0.021,3.491c0.041,5.495,0.041,7.621-0.889,11.421h14.303
		c-0.961-3.84-0.909-6.609-0.909-10.099l0.021-2.83c0-4.894,0.021-9.107-2.097-12.764c-2.767-4.667-7.589-6.938-14.726-6.938
		c-1.332,0-2.57,0.061-3.696,0.164c-6.32,0.538-17.091,4.751-17.091,16.977v17.432c0,9.624,2.354,12.434,9.304,20.714l0.259,0.311
		c0.847,1.033,1.797,2.106,2.767,3.283l5.442,6.898c5.897,7.023,7.313,8.696,7.313,15.738v16.812c0,4.027-2.2,6.671-5.608,6.671
		c-3.335,0-5.752-2.809-5.752-6.671l-0.021-3.737c-0.021-5.659-0.041-8.737,0.847-12.93h-14.25
		c0.949,4.338,0.929,8.179,0.909,11.958l-0.042,3.738c-0.083,5.494-0.196,10.678,6.03,15.035c2.83,2.148,7.271,3.408,12.195,3.408
		c2.779,0,5.505-0.393,7.446-1.136c3.594-1.26,11.948-5.143,11.948-13.527v-22.142c0-10.099-0.992-11.276-7.373-18.938
		C897.578,124.415,896.411,122.99,895.079,121.359"/>
	<path d="M1000.131,67.64H966.61c1.757,4.418,2.005,6.793,2.005,11.937v88.354c0,5.122-0.248,7.477-2.005,11.896h33.521v-11.999
		c-4.315,1.508-6.092,1.528-13.92,1.672l-3.717,0.021V78.255h4.986c6.744,0,8.634,0.124,12.65,1.548"/>
	<path d="M987.749,126.976c1.063-0.207,5.866-2.83,6.898-3.511c1.457-0.971,3.025-1.942,4.885-1.817v-13.157
		c-0.909,0.6-1.776,1.446-2.664,2.272c-1.652,1.57-7.126,5.123-9.119,5.535"/>
	<path d="M238.359,249.532v-0.784c0.021-2.912,0.021-5.204-2.013-7.312c-2.035-2.065-5.309-2.354-8.272-2.354l-7.828,0.021
		c0.723,1.797,0.806,2.767,0.806,4.812v35.668c0,2.045-0.083,3.015-0.806,4.812h7.259c-0.744-1.775-0.847-2.767-0.847-4.812v-11.38
		h0.785c0.186,0,0.465,0,0.826,0.021c0.465,0.021,1.013,0.041,1.621,0.041c2.221,0,3.852-0.351,4.916-1.031
		c3.615-2.335,3.573-5.453,3.553-9.439 M232.752,260.478c0,1.652-0.238,3.408-2.922,3.408h-3.171v-20.385h3.171
		c2.705,0,2.922,1.776,2.922,3.407V260.478z"/>
	<path d="M296.136,278.549v-11.276c0.021-2.313,0.021-3.449-1.817-5.988l-0.382-0.477l0.423-0.475
		c1.353-1.528,1.776-2.562,1.776-4.233l0.021-8.158c0-3.016,0.052-4.833-1.838-6.815c-2.004-2.106-5.752-2.065-8.159-2.045
		l-0.805,0.021h-7.322c0.723,1.797,0.826,2.767,0.826,4.832v35.647c0,2.045-0.103,3.015-0.826,4.812h7.259
		c-0.723-1.775-0.826-2.767-0.826-4.812v-16.977h0.764c4.307,0,5.329,0.413,5.329,4.44v17.369h6.423
		c-0.713-2.128-0.733-2.975-0.774-4.564C296.209,279.479,296.157,279.045,296.136,278.549 M290.56,255.068
		c0,3.242-2.241,3.242-5.329,3.242h-0.764v-14.995h2.024c1.023,0,4.069,0,4.069,3.222V255.068z"/>
	<path d="M351.146,240.052c-1.261-1.053-3.615-1.715-6.217-1.715c-2.603,0-4.926,0.662-6.217,1.715
		c-1.776,1.569-2.427,3.057-2.427,5.783v31.764c0,3.078,0.816,4.38,2.448,5.845c1.271,1.033,3.593,1.694,6.196,1.694
		c2.602,0,4.956-0.661,6.217-1.694c1.797-1.59,2.375-2.973,2.375-5.845v-31.764C353.521,242.985,352.922,241.56,351.146,240.052
		 M347.976,276.938c0,3.388-2.179,3.802-3.108,3.802c-1.837,0-2.985-1.467-2.985-3.802v-30.359c0-1.756,0.786-3.821,2.985-3.821
		c1.993,0,3.108,1.384,3.108,3.821V276.938z"/>
	<path d="M401.984,239.103H393c0.691,1.797,0.826,2.787,0.826,4.812v35.689c0,2.023-0.135,2.993-0.826,4.79h6.34
		c4.171,0,7.021-0.164,9.16-2.354c1.734-1.672,2.603-4.295,2.603-7.806v-26.685C411.103,240.754,409.326,239.103,401.984,239.103
		 M405.495,276.691c0,1.652-0.227,3.408-2.912,3.408h-3.18v-36.598h3.18c2.686,0,2.912,1.776,2.912,3.407V276.691z"/>
	<path d="M463.407,244.059v32.901c0,2.952-1.549,3.593-2.861,3.593c-1.735,0-2.871-1.425-2.871-3.593v-32.901
		c0-2.065,0.124-3.057,0.95-4.956h-7.766c0.805,1.92,0.888,2.891,0.888,4.956v33.562c0,3.14,0.827,4.461,2.5,5.969
		c1.332,1.054,3.717,1.673,6.34,1.673c2.624,0,4.967-0.619,6.258-1.673c1.89-1.673,2.478-3.099,2.478-5.969v-33.562
		c0-2.065,0.103-3.036,0.889-4.956h-7.725C463.292,241.023,463.407,241.994,463.407,244.059"/>
	<path d="M520.822,267.459c0.403,1.879,0.403,3.8,0.383,7.332v2.146c0,2.5-1.033,3.78-3.089,3.78c-1.837,0-3.005-1.445-3.005-3.78
		v-30.359c0-2.334,1.188-3.8,3.005-3.8c1.963,0,3.089,1.362,3.089,3.8v2.375c0,1.57-0.146,3.388-0.425,4.813h6.32
		c-0.382-1.57-0.382-2.686-0.352-4.11l0.021-3.82c0-2.83-0.6-4.234-2.457-5.805c-1.251-1.053-3.553-1.672-6.155-1.672
		s-4.905,0.619-6.217,1.714c-1.59,1.385-2.437,2.664-2.437,5.763v31.764c0,3.099,0.847,4.38,2.478,5.845
		c1.249,1.033,3.573,1.694,6.176,1.694s4.904-0.661,6.175-1.714c1.591-1.385,2.438-2.685,2.438-5.825l-0.021-4.667
		c-0.03-2.209-0.03-3.821,0.352-5.473"/>
	<path d="M563.471,243.873c1.25-0.537,2.54-0.537,4.885-0.537h0.743v36.247c0,2.045-0.103,3.015-0.805,4.812h7.208
		c-0.671-1.797-0.796-2.767-0.796-4.812v-36.247h0.754c2.354,0,3.625,0,4.885,0.537v-4.77h-16.874"/>
	<path d="M625.751,239.103h-7.26c0.723,1.797,0.806,2.787,0.806,4.812v35.689c0,2.023-0.083,2.993-0.785,4.79h7.26
		c-0.744-1.775-0.847-2.767-0.847-4.79v-35.689C624.925,241.87,625.027,240.877,625.751,239.103"/>
	<path d="M680.141,240.052c-1.312-1.053-3.645-1.715-6.227-1.715c-2.592,0-4.926,0.662-6.237,1.715
		c-1.776,1.569-2.427,3.057-2.427,5.783v31.764c0,3.078,0.826,4.38,2.447,5.845c1.291,1.033,3.625,1.694,6.217,1.694
		c2.582,0,4.915-0.661,6.227-1.694c1.797-1.59,2.345-2.973,2.345-5.845v-31.764C682.485,242.985,681.917,241.56,680.141,240.052
		 M676.96,276.938c0,3.388-2.179,3.802-3.129,3.802c-1.817,0-2.953-1.467-2.953-3.802v-30.359c0-1.756,0.774-3.821,2.953-3.821
		c1.993,0,3.129,1.384,3.129,3.821V276.938z"/>
	<path d="M743.154,243.915c0-2.065,0.104-3.015,0.805-4.812h-6.536c0.712,1.774,0.847,2.704,0.847,4.812v29.41l-9.397-34.222h-6.464
		c0.712,1.797,0.795,2.746,0.795,4.812v35.689c0,2.064-0.083,3.015-0.795,4.79h6.577c-0.702-1.734-0.888-2.746-0.888-4.79V250.11
		l9.852,34.347l6.01-0.041c-0.701-1.797-0.805-2.747-0.805-4.812"/>
	<path d="M796.181,262.626c-0.506-0.62-0.971-1.178-1.508-1.839l-2.22-2.767c-0.351-0.476-0.713-0.868-0.991-1.219
		c-1.632-1.983-2.406-2.953-2.406-5.205v-6.071c0-1.633,0.867-2.706,2.199-2.706s2.365,1.198,2.365,2.706v1.404
		c0.021,2.21,0.021,3.098-0.361,4.625h5.771c-0.35-1.527-0.35-2.684-0.35-4.068v-1.177c0.021-1.941,0.021-3.655-0.847-5.121
		c-1.105-1.922-3.048-2.83-5.928-2.83c-0.548,0-1.074,0.021-1.478,0.062c-2.581,0.228-6.918,1.941-6.918,6.857v7.021
		c0,3.925,0.929,5.061,3.748,8.405l0.124,0.125c0.341,0.413,0.691,0.825,1.095,1.322l2.199,2.767
		c2.375,2.87,2.964,3.511,2.964,6.383v6.795c0,1.61-0.888,2.685-2.282,2.685c-1.332,0-2.303-1.137-2.303-2.685v-1.508
		c-0.021-2.294-0.042-3.532,0.31-5.227h-5.772c0.402,1.756,0.402,3.305,0.402,4.833l-0.04,1.487
		c-0.021,2.23-0.063,4.337,2.457,6.094c1.136,0.867,2.933,1.362,4.905,1.362c1.136,0,2.22-0.187,3.006-0.434
		c1.476-0.558,4.843-2.086,4.843-5.473v-8.943C799.166,266.2,798.763,265.725,796.181,262.626"/>
	<path d="M595.133,80.939c0-5.142,0.299-7.29,2.056-11.917h7.723v-2.127l-19-44.591h-41.027L518.323,0l-26.54,22.677h-40.356
		l-19.621,44.425v2.023l0.651-0.103h7.063c1.734,4.626,1.466,6.774,1.466,11.917v88.148c0,4.916,0.228,8.055-1.27,11.153h48.535
		c1.498-4.647,2.055-6.154,2.055-11.029V80.878c0-4.998-0.6-7.436-2.231-11.607l-0.97-1.796h22.883l-0.723,1.796
		c-1.683,4.151-2.003,6.589-2.003,11.628v34.45h21.593v-34.45c0-5.019-0.021-7.456-1.652-11.628l-0.383-1.796h21.242l-0.495,1.796
		c-1.642,4.172-1.776,6.609-1.776,11.628v88.334c0,4.854,0.135,6.36,1.59,11.008h49.465c-1.455-4.647-1.714-6.341-1.714-11.153"/>
	<polyline points="507.264,127.72 507.264,180.241 528.856,180.241 528.856,127.72 	"/>
</g>
</svg>
